<svg width="561" height="545" viewBox="0 0 561 545" fill="none" xmlns="http://www.w3.org/2000/svg">
<path d="M489.354 109.162C459.386 139.523 429.421 169.881 399.46 200.236C389.661 190.515 380.463 181.43 371.314 172.296C368.288 169.274 364.454 166.658 360.796 169.477C355.289 173.621 350.391 178.518 346.246 184.024C343.957 187.159 345.422 191.699 348.809 194.785C358.283 203.418 367.687 212.128 377.655 221.301C365.755 232.589 355.64 242.353 345.339 251.918C325.343 270.483 305.411 289.122 285.139 307.383C264.757 325.745 244.16 343.868 223.349 361.753C201.916 380.144 180.262 398.277 158.388 416.152C136.253 434.172 113.646 451.614 91.3404 469.427C88.9049 471.371 87.5567 470.936 85.5481 468.954C43.8716 427.831 15.8435 379.334 5.02923 321.337C1.23751 301.001 -0.739858 280.537 0.255812 259.934C3.04949 202.126 21.0952 149.742 57.0322 103.93C92.8692 58.2464 138.86 27.5698 194.397 11.034C225.654 1.8273 258.315 -1.66251 290.81 0.732426C348.131 4.66039 399.258 25.0223 443.866 61.2861C460.978 75.2723 476.261 91.3576 489.354 109.162ZM268.828 161.693C268.662 161.68 268.409 161.591 268.344 161.665C267.798 162.29 267.333 162.991 266.757 163.583C254.21 176.488 239.465 183.441 220.968 181.491C197.562 179.023 176.235 158.893 175.118 130.829C174.34 111.284 182.805 95.5637 198.056 83.53C202.428 80.0804 207.176 77.1068 211.878 73.8262C199.206 67.5584 167.764 74.3655 150.247 93.6526C129.026 117.017 125.552 153.133 142.321 180.836C150.271 193.804 162.198 203.858 176.324 209.499C190.451 215.14 206.021 216.067 220.718 212.142C248.374 204.58 266.717 181.327 268.828 161.693Z" fill="#EB3E5B"/>
<path d="M169.14 522.151C263.142 448.238 349.501 366.437 430.931 281C437.33 286.905 443.435 292.53 449.53 298.166C451.499 300.193 453.576 302.113 455.751 303.918C460.424 307.385 464.447 306.992 468.598 302.922C471.449 300.126 474.283 297.306 477.016 294.395C481.344 289.785 481.366 284.316 476.79 279.89C468.426 271.799 459.882 263.894 450.932 255.458C476.674 228.863 501.281 203.44 525.947 177.957C557.671 260.038 550.084 379.32 458.229 469.014C373.399 551.849 251.053 561.375 169.14 522.151Z" fill="#EB3E5B"/>
<path d="M398.629 248.156C405.051 254.077 411.51 260.032 418.153 266.157C406.987 277.745 396.503 289.103 385.508 299.943C355.998 329.04 326.712 358.387 296.49 386.732C271.756 409.929 246.01 432.066 220.328 454.228C197.94 473.548 175.417 492.755 152.19 511.044C136.177 523.653 118.409 533.6 98.0603 538.096C75.4549 543.09 53.3444 541.307 31.5091 534.131C29.5403 533.562 27.6281 532.813 25.7965 531.893C45.8869 528.064 65.4768 521.963 84.1885 513.707C109.199 502.874 131.334 487.449 152.213 470.223C181.05 446.43 209.979 422.714 238.064 398.049C269.434 370.498 300.145 342.182 330.686 313.708C353.925 292.041 376.45 269.607 398.629 248.156Z" fill="#EB3E5B"/>
<path d="M543.604 142.979C532.836 132.659 521.834 122.114 510.094 110.863C515.797 105.293 520.394 100.117 525.703 95.8197C530.694 91.7794 537.826 92.4584 542.533 96.8348C547.267 101.235 551.872 105.81 556.176 110.628C561.714 116.829 561.564 123.913 556.23 130.346C555.023 131.926 553.735 133.441 552.371 134.886C549.642 137.551 546.772 140.072 543.604 142.979Z" fill="#EB3E5B"/>
<path d="M471.661 179.458C472.633 186.633 473.579 193.622 474.638 201.443L451.778 199.554C451.303 192.257 450.867 185.564 450.379 178.062C457.684 178.541 464.231 178.971 471.661 179.458Z" fill="#EB3E5B"/>
<path d="M507.112 168.298C500.042 167.603 493.514 167.034 487.016 166.229C486.521 166.047 486.079 165.745 485.729 165.351C485.379 164.956 485.132 164.481 485.01 163.968C484.375 157.941 483.97 151.891 483.431 145.088C491.075 145.467 498.096 145.816 506.055 146.211C506.409 153.603 506.744 160.607 507.112 168.298Z" fill="#EB3E5B"/>
<path d="M421.789 230.002C421.321 223.258 420.89 217.051 420.424 210.333C427.749 210.783 434.431 211.194 441.812 211.647C442.458 218.66 443.1 225.634 443.811 233.347L421.789 230.002Z" fill="#EB3E5B"/>
</svg>
